<svg xmlns="http://www.w3.org/2000/svg" xmlns:xlink="http://www.w3.org/1999/xlink" width="118" zoomAndPan="magnify" viewBox="0 0 88.5 30.000001" height="40" preserveAspectRatio="xMidYMid meet" version="1.0"><defs><g/></defs><g fill="#ffffff" fill-opacity="1"><g transform="translate(2.894142, 21.413355)"><g><path d="M 7.9375 -9.203125 L 11.875 -15 L 14.75 -15 L 14.75 0 L 11.109375 0 L 11.109375 -7.421875 L 8.9375 -4.21875 L 6.90625 -4.21875 L 4.734375 -7.453125 L 4.734375 0 L 1.078125 0 L 1.078125 -15 L 3.984375 -15 Z M 7.9375 -9.203125 "/></g></g></g><g fill="#ffffff" fill-opacity="1"><g transform="translate(18.789798, 21.413355)"><g><path d="M 6.171875 -15.171875 L 8.796875 -15.171875 L 15.03125 0 L 10.890625 0 L 10.046875 -2.203125 L 4.9375 -2.203125 L 4.09375 0 L 0.171875 0 Z M 7.5 -9.125 L 6.390625 -5.953125 L 6.265625 -5.609375 L 8.75 -5.609375 L 8.65625 -5.875 Z M 7.5 -9.125 "/></g></g></g><g fill="#ffffff" fill-opacity="1"><g transform="translate(33.785703, 21.413355)"><g><path d="M 9.09375 -15 L 12.71875 -15 L 12.71875 0 L 9.84375 0 L 4.71875 -7.3125 L 4.71875 0 L 1.078125 0 L 1.078125 -15 L 3.90625 -15 L 9.09375 -7.5 Z M 9.09375 -15 "/></g></g></g><g fill="#ffffff" fill-opacity="1"><g transform="translate(47.624778, 21.413355)"><g><path d="M 6.90625 0.21875 C 6.175781 0.21875 5.460938 0.113281 4.765625 -0.09375 C 4.078125 -0.300781 3.453125 -0.613281 2.890625 -1.03125 C 2.335938 -1.445312 1.894531 -1.96875 1.5625 -2.59375 C 1.238281 -3.21875 1.078125 -3.960938 1.078125 -4.828125 L 1.078125 -15 L 4.734375 -15 L 4.734375 -4.84375 C 4.734375 -4.289062 4.953125 -3.875 5.390625 -3.59375 C 5.828125 -3.3125 6.3125 -3.171875 6.84375 -3.171875 C 7.382812 -3.171875 7.875 -3.3125 8.3125 -3.59375 C 8.757812 -3.875 8.984375 -4.289062 8.984375 -4.84375 L 8.984375 -15 L 12.640625 -15 L 12.640625 -4.828125 C 12.640625 -3.984375 12.476562 -3.242188 12.15625 -2.609375 C 11.84375 -1.984375 11.410156 -1.457031 10.859375 -1.03125 C 10.304688 -0.613281 9.6875 -0.300781 9 -0.09375 C 8.3125 0.113281 7.613281 0.21875 6.90625 0.21875 Z M 6.90625 0.21875 "/></g></g></g><g fill="#ffffff" fill-opacity="1"><g transform="translate(61.335317, 21.413355)"><g><path d="M 1.078125 -15.140625 L 10.953125 -15.140625 L 10.953125 -11.59375 L 4.765625 -11.59375 L 4.765625 -9.5 L 10.828125 -9.5 L 10.828125 -5.9375 L 4.765625 -5.9375 L 4.765625 -3.53125 L 10.96875 -3.53125 L 10.96875 0 L 1.078125 0 Z M 1.078125 -15.140625 "/></g></g></g><g fill="#ffffff" fill-opacity="1"><g transform="translate(73.289195, 21.413355)"><g><path d="M 1.078125 -15 L 4.734375 -15 L 4.734375 -3.53125 L 11.046875 -3.53125 L 11.046875 0 L 1.078125 0 Z M 1.078125 -15 "/></g></g></g></svg>